<?xml version="1.0" encoding="iso-8859-1"?>
<!-- Generator: Adobe Illustrator 19.0.0, SVG Export Plug-In . SVG Version: 6.00 Build 0)  -->
<svg version="1.1" id="Layer_1" xmlns="http://www.w3.org/2000/svg" xmlns:xlink="http://www.w3.org/1999/xlink" x="0px" y="0px"
	 viewBox="0 0 496 496" style="enable-background:new 0 0 496 496;" xml:space="preserve">
<g>
	<g>
		<g>
			<rect x="240" width="16" height="32"/>
			<rect x="172" y="24.085" transform="matrix(0.5 0.866 -0.866 0.5 121.7843 -146.7693)" width="31.999" height="16"/>
			<rect x="128.072" y="67.995" transform="matrix(0.866 0.5 -0.5 0.866 57.3012 -61.8558)" width="31.999" height="16"/>
			<rect x="112" y="128" width="32" height="16"/>
			<rect x="136.08" y="180.003" transform="matrix(-0.4999 -0.8661 0.8661 -0.4999 46.3485 418.7704)" width="16" height="32"/>
			<rect x="335.916" y="187.999" transform="matrix(0.866 0.5 -0.5 0.866 145.1512 -149.7017)" width="31.999" height="16"/>
			<rect x="352" y="128" width="32" height="16"/>
			<rect x="343.933" y="60.008" transform="matrix(0.4999 0.8661 -0.8661 0.4999 241.8341 -266.7925)" width="16" height="32"/>
			<rect x="300.002" y="16.068" transform="matrix(0.8661 0.4999 -0.4999 0.8661 57.2756 -149.6727)" width="16" height="32"/>
			<path d="M336,136c0-48.52-39.48-88-88-88s-88,39.48-88,88c0,22.656,8.496,43.952,24,60.352V200h-16v16h16v16h-16v16h16v32h128
				v-32h16v-16h-16v-16h16v-16h-16v-3.648C327.496,179.952,336,158.656,336,136z M296,264h-96v-16h96V264z M296,232h-96v-16h96V232z
				 M298.4,187.376l-2.4,2.352V200h-40v-33.136c13.76-3.576,24-15.992,24-30.864c0-17.648-14.352-32-32-32s-32,14.352-32,32
				c0,14.872,10.232,27.288,24,30.864V200h-40v-10.272l-2.4-2.352C183.672,173.712,176,155.464,176,136c0-39.704,32.296-72,72-72
				c39.704,0,72,32.296,72,72C320,155.464,312.328,173.712,298.4,187.376z M248,152c-8.824,0-16-7.176-16-16c0-8.824,7.176-16,16-16
				c8.816,0,16,7.176,16,16C264,144.824,256.816,152,248,152z"/>
			<path d="M432,192c-17.648,0-32,14.352-32,32c0,8.048,3.08,15.32,8,20.944v73.784c-7.48-3.28-15.544-5.48-24-6.32V296H112v16.408
				c-8.464,0.848-16.52,3.04-24,6.32v-73.784c4.92-5.624,8-12.896,8-20.944c0-17.648-14.352-32-32-32s-32,14.352-32,32
				c0,8.048,3.08,15.32,8,20.944V392c0,41.408,31.632,75.568,72,79.592V496h272v-24.408c40.368-4.032,72-38.184,72-79.592V244.944
				c4.92-5.624,8-12.896,8-20.944C464,206.352,449.648,192,432,192z M48,224c0-8.824,7.176-16,16-16c8.816,0,16,7.176,16,16
				c0,8.824-7.184,16-16,16C55.176,240,48,232.824,48,224z M72.208,328c-6.152,4.608-11.6,10.056-16.208,16.208v-89.344
				c2.568,0.672,5.224,1.136,8,1.136s5.424-0.464,8-1.136V328H72.208z M112,352H96v16h16v16H96v16h16v16H96v16h16v23.448
				c-31.52-3.96-56-30.872-56-63.448s24.48-59.488,56-63.448V352z M288,480h-80v-32h80V480z M368,480h-64v-48H192v48h-64V312h240
				V480z M384,455.448V432h16v-16h-16v-16h16v-16h-16v-16h16v-16h-16v-23.448c31.52,3.96,56,30.872,56,63.448
				S415.52,451.488,384,455.448z M440,344.208c-4.608-6.152-10.056-11.6-16.208-16.208H424v-73.136c2.568,0.672,5.224,1.136,8,1.136
				s5.424-0.464,8-1.136V344.208z M432,240c-8.824,0-16-7.176-16-16c0-8.824,7.176-16,16-16c8.816,0,16,7.176,16,16
				C448,232.824,440.816,240,432,240z"/>
			<path d="M184,424c22.056,0,40-17.944,40-40c0-22.056-17.944-40-40-40c-22.056,0-40,17.944-40,40C144,406.056,161.944,424,184,424
				z M184,360c13.232,0,24,10.768,24,24s-10.768,24-24,24s-24-10.768-24-24S170.768,360,184,360z"/>
			<path d="M312,424c22.056,0,40-17.944,40-40c0-22.056-17.944-40-40-40c-22.056,0-40,17.944-40,40C272,406.056,289.944,424,312,424
				z M312,360c13.232,0,24,10.768,24,24s-10.768,24-24,24s-24-10.768-24-24S298.768,360,312,360z"/>
		</g>
	</g>
</g>
<g>
</g>
<g>
</g>
<g>
</g>
<g>
</g>
<g>
</g>
<g>
</g>
<g>
</g>
<g>
</g>
<g>
</g>
<g>
</g>
<g>
</g>
<g>
</g>
<g>
</g>
<g>
</g>
<g>
</g>
</svg>
