<?xml version="1.0" encoding="utf-8"?>
<!-- Generator: Adobe Illustrator 16.0.0, SVG Export Plug-In . SVG Version: 6.00 Build 0)  -->
<!DOCTYPE svg PUBLIC "-//W3C//DTD SVG 1.1//EN" "http://www.w3.org/Graphics/SVG/1.1/DTD/svg11.dtd">
<svg version="1.1" id="Layer_1" xmlns="http://www.w3.org/2000/svg" xmlns:xlink="http://www.w3.org/1999/xlink" x="0px" y="0px"
	 width="1111.167px" height="1109.912px" viewBox="2160.366 3820.278 1111.167 1109.912"
	 enable-background="new 2160.366 3820.278 1111.167 1109.912" xml:space="preserve">
<path fill="#A64413" d="M3271.533,4130.378v-223.107c0-51.953-34.731-86.992-86.834-86.992h-402.256
	c-27.847,0-51.002,10.014-66.493,27.839c-15.021-17.825-38.332-27.839-66.337-27.839h-402.255
	c-51.788,0-86.992,35.039-86.992,86.992v223.107c0,28.468,10.327,51.623,28.476,66.966c-17.838,15.326-27.851,38.166-27.851,66.336
	v223.107c0,28.17,10.013,51.011,27.536,66.337c-17.834,15.343-28.161,38.497-28.161,66.65v223.422
	c0,52.269,35.204,86.678,86.992,86.678h402.255c28.005,0,51.316-10.014,66.337-27.524c15.491,17.511,38.646,27.524,66.493,27.524
	h402.256c52.103,0.314,86.834-34.409,86.834-86.678v-223.422c0-28.153-10.013-51.308-27.847-66.65
	c17.523-15.326,27.537-38.167,27.537-66.337V4263.68c0-28.17-10.324-51.01-27.852-66.336
	C3261.21,4182.001,3271.533,4158.846,3271.533,4130.378"/>
<path d="M3271.533,4130.378v-223.107c0-51.953-34.731-86.992-86.834-86.992h-402.256c-27.847,0-51.002,10.328-66.336,27.839
	c-15.178-17.511-38.332-27.839-66.494-27.839h-402.255c-51.788,0-86.835,35.039-86.835,86.992v223.107
	c0,28.468,10.17,51.623,28.318,66.966c-17.838,15.326-27.693,38.48-27.693,66.336v223.422c0,27.855,9.855,50.696,27.379,66.337
	c-17.834,15.028-28.004,38.183-28.004,66.65v223.107c0,51.954,35.047,86.992,86.835,86.992h402.255
	c28.162,0,51.316-10.014,66.494-27.839c15.334,17.825,38.489,27.839,66.336,27.839h402.256
	c52.103,0.314,86.834-35.038,86.834-86.992v-223.107c0-28.468-9.855-51.622-27.689-66.65c17.52-15.641,27.38-38.481,27.38-66.337
	V4263.68c0-27.855-10.171-51.01-27.694-66.336C3261.363,4182.001,3271.533,4158.846,3271.533,4130.378 M2736.448,3905.069
	c0.625-28.468,17.209-43.811,46.31-43.811h401.941c29.887,0,46.16,16.27,46.16,46.012v223.107c0,29.726-16.273,46.31-46.16,46.31
	h-402.256c-28.786,0-45.37-15.955-45.995-44.439v-1.87v-223.107V3905.069z M2963.155,4487.102c0,27.855-14.238,43.811-40.368,45.681
	h-140.344c-2.188,0-4.221,0.314-6.256,0.314h-120.003c-2.036,0-4.382-0.314-6.571-0.314H2509.27
	c-25.815-1.87-40.368-17.825-40.054-45.681V4263.68c-0.314-29.411,16.27-45.995,45.842-45.995h402.256
	c29.729,0,45.842,16.584,45.842,45.995V4487.102z M2201.512,3907.271c0-29.742,15.964-46.012,45.847-46.012h402.255
	c29.101,0,45.375,15.343,46.31,43.811c-0.314,0.943-0.314,1.572-0.314,1.887v223.422v1.87c-0.62,28.484-16.895,44.439-45.995,44.439
	h-402.255c-29.883,0-45.847-16.584-45.847-46.31V3907.271z M2202.141,4487.102V4263.68c0-29.411,15.955-45.995,45.842-45.995
	h133.616c29.726,0,46.157,16.584,46.157,45.995v223.422c0,27.855-14.553,43.811-40.368,45.681h-140.029
	c-0.629,0-1.564,0.314-2.193,0.314C2217.161,4531.839,2202.141,4515.884,2202.141,4487.102 M2695.608,4845.083
	c-0.62,28.468-16.895,44.108-45.995,44.108h-402.255c-29.883,0-45.847-16.27-45.847-45.995v-223.107
	c0-29.097,15.492-45.052,43.653-45.995c0.939,0,1.879,0.314,2.817,0.314h133.616c2.347,0,4.539-0.314,6.729-0.314h120.313
	c1.878,0,4.229,0.314,6.417,0.314h140.345c25.344,1.87,39.586,16.898,40.206,43.182v2.499v223.107V4845.083z M3230.859,4620.089
	v223.107c0,29.726-16.273,45.995-46.16,45.995l-402.256-0.298c-28.786,0-45.37-15.343-45.995-43.811v-1.887v-223.107v-2.499
	c0.625-26.283,14.862-41.312,40.521-43.182h140.345c2.346,0,4.539-0.314,6.417-0.314h120.313c2.347,0,4.225,0.314,6.418,0.314
	h133.616c1.25,0,2.342-0.314,3.285-0.314C3215.368,4575.037,3230.859,4590.992,3230.859,4620.089 M3184.699,4532.782h-139.716
	c-26.126-1.87-40.368-17.825-40.368-45.681V4263.68c0-29.411,16.428-45.995,45.847-45.995h133.616
	c29.883,0,46.152,16.584,46.152,45.995v223.422c0,28.782-15.177,44.737-42.867,45.681
	C3186.42,4533.097,3185.643,4532.782,3184.699,4532.782"/>
</svg>
